<svg width="64" height="64" viewBox="0 0 64 64" fill="none" xmlns="http://www.w3.org/2000/svg" role="img" aria-label="FiscRecife">
  <defs>
    <linearGradient id="sky" x1="0" y1="0" x2="64" y2="64" gradientUnits="userSpaceOnUse">
      <stop offset="0" stop-color="#5BB6F0"/>
      <stop offset="1" stop-color="#1E64C8"/>
    </linearGradient>
  </defs>
  <rect width="64" height="64" rx="16" fill="url(#sky)"/>
  <g fill="#ffffff">
    <path d="M14 40c0-9.94 8.06-18 18-18s18 8.06 18 18v1a1 1 0 0 1-1 1H15a1 1 0 0 1-1-1v-1Z" opacity="0.18"/>
    <path d="M28 23.4c0-1 .8-1.9 1.8-2 .7-.1 1.4-.2 2.2-.2s1.5.1 2.2.2c1 .1 1.8 1 1.8 2v3.2a14 14 0 0 1 8.9 10.9c.1.7-.4 1.3-1.1 1.3H20.2c-.7 0-1.2-.6-1.1-1.3A14 14 0 0 1 28 26.6v-3.2Z"/>
    <rect x="13" y="40.5" width="38" height="5.2" rx="2.6"/>
  </g>
</svg>
