<svg width="64" height="64" viewBox="0 0 64 64" fill="none" xmlns="http://www.w3.org/2000/svg" role="img" aria-label="FiscRecife">
  <defs>
    <linearGradient id="sky" x1="0" y1="0" x2="64" y2="64" gradientUnits="userSpaceOnUse">
      <stop offset="0" stop-color="#5BB6F0"/>
      <stop offset="1" stop-color="#1E64C8"/>
    </linearGradient>
  </defs>
  <rect width="64" height="64" rx="16" fill="url(#sky)"/>
  <g fill="#ffffff">
    <!-- brim -->
    <rect x="12" y="40" width="40" height="6" rx="3"/>
    <!-- dome -->
    <path d="M32 18c-7.2 0-13 5.6-13 12.6V39a1 1 0 0 0 1 1h24a1 1 0 0 0 1-1v-8.4C45 23.6 39.2 18 32 18Z"/>
    <!-- center ridge cut -->
    <path d="M32 18c-1.7 0-3 1.3-3 3v18h6V21c0-1.7-1.3-3-3-3Z" fill="#1E64C8" opacity="0.18"/>
  </g>
</svg>
